# xmcd
#
# Track frame offsets:
#	150
#	13427
#	27862
#	39845
#	52875
#	71655
#	87440
#	100610
#	116575
#	129465
#	142107
#	156300
#
# Disc length: 2221 seconds
# Revision: 3
# Processed by: cddbd v1.5.2PL0 Copyright (c) Steve Scherf et al.
# Submitted via: dBpowerAMP V12.0
#
DISCID=9f08ab0c
DTITLE=The Lonesome River Band - Old Country Town
DYEAR=1994
DGENRE=Country
TTITLE0=Highway Paved With Pain
TTITLE1=Old Country Town
TTITLE2=Tears Are Blinding Me
TTITLE3=Long Gone
TTITLE4=(Listen to) The Old Man
TTITLE5=Who Needs You
TTITLE6=Game (I Can't Win)
TTITLE7=Running Hard on a Broken Heart
TTITLE8=She's About Trouble
TTITLE9=Solid Rock
TTITLE10=I'll Take the Blame
TTITLE11=Old Lonesome, Welcome Back
EXTD=
EXTT0=
EXTT1=
EXTT2=
EXTT3=
EXTT4=
EXTT5=
EXTT6=
EXTT7=
EXTT8=
EXTT9=
EXTT10=
EXTT11=
PLAYORDER=
